<?xml version="1.0" encoding="utf-8"?>
<!-- Generator: Adobe Illustrator 16.0.0, SVG Export Plug-In . SVG Version: 6.00 Build 0)  -->
<!DOCTYPE svg PUBLIC "-//W3C//DTD SVG 1.1//EN" "http://www.w3.org/Graphics/SVG/1.1/DTD/svg11.dtd">
<svg version="1.1" id="Layer_1" xmlns="http://www.w3.org/2000/svg" xmlns:xlink="http://www.w3.org/1999/xlink" x="0px" y="0px"
	 width="325px" height="65px" viewBox="0 0 325 65" enable-background="new 0 0 325 65" xml:space="preserve">
<path fill-rule="evenodd" clip-rule="evenodd" fill="#545554" d="M108.513,1h143l7,7h8l10,31l-13,3v6l-97,8l-15,8h-33l-20-17h-63V22
	l60-6L108.513,1z"/>
<path fill-rule="evenodd" clip-rule="evenodd" fill="#B0AFB0" stroke="#B2B3B3" stroke-miterlimit="10" d="M198.513,1l4,4v4l-4,4h-1
	l-2-2h-6v2h-4v-2h-12l-2,2h-2l-6-6V5l4-4H198.513z"/>
<path fill-rule="evenodd" clip-rule="evenodd" fill="#BF942D" d="M109.612,56.489l-1.199-0.979l162-33l0.199,0.979L109.612,56.489z"
	/>
<path fill-rule="evenodd" clip-rule="evenodd" fill="#BF942D" d="M35.513,42v-1h98v1H35.513z"/>
<path fill-rule="evenodd" clip-rule="evenodd" fill="#BF942D" d="M35.513,28v-1h168v1H35.513z"/>
<path fill-rule="evenodd" clip-rule="evenodd" fill="#E5E5E5" d="M117.61,63.49l-0.195-0.98l156-31l0.195,0.98L117.61,63.49z"/>
<path fill-rule="evenodd" clip-rule="evenodd" fill="#E5E5E5" d="M100.608,48.49l-1.19-0.98l169-33l0.19,0.98L100.608,48.49z"/>
<path fill-rule="evenodd" clip-rule="evenodd" fill="#D8D8D8" d="M194.513,2c0.552,0,1,0.448,1,1s-0.448,1-1,1s-1-0.448-1-1
	S193.961,2,194.513,2z"/>
<path fill-rule="evenodd" clip-rule="evenodd" fill="#D3D3D3" d="M196.013,5c0.828,0,1.5,0.672,1.5,1.5s-0.672,1.5-1.5,1.5
	s-1.5-0.672-1.5-1.5S195.185,5,196.013,5z"/>
<path fill-rule="evenodd" clip-rule="evenodd" fill="#D6D6D6" d="M192.513,5c0.552,0,1,0.448,1,1s-0.448,1-1,1s-1-0.448-1-1
	S191.961,5,192.513,5z"/>
<path fill-rule="evenodd" clip-rule="evenodd" fill="#DCDCDA" d="M172.513,2c0.552,0,1,0.448,1,1s-0.448,1-1,1s-1-0.448-1-1
	S171.961,2,172.513,2z"/>
<path fill-rule="evenodd" clip-rule="evenodd" fill="#D8D8D8" d="M172.513,7c0.552,0,1,0.448,1,1s-0.448,1-1,1s-1-0.448-1-1
	S171.961,7,172.513,7z"/>
<path fill-rule="evenodd" clip-rule="evenodd" fill="#E0E0E0" d="M170.013,4c0.828,0,1.5,0.672,1.5,1.5s-0.672,1.5-1.5,1.5
	s-1.5-0.672-1.5-1.5S169.185,4,170.013,4z"/>
<path fill-rule="evenodd" clip-rule="evenodd" fill="#5B5C5C" d="M168.513,1h-1l-4,4v2l6,6h2l2-2h12v2h4v-2h6l2,2h1l4-4V5l-4-4h-1v8
	h-29V1z"/>
<path fill-rule="evenodd" clip-rule="evenodd" fill="#D3D3D3" d="M179.513,1v1h-2v1h2v1h-3v1h3v1h-2v1h2v1h1V7h2V6h-2V5h3V4h-3V3h2
	V2h-2V1H179.513z"/>
<path fill-rule="evenodd" clip-rule="evenodd" fill="#B7B7B7" d="M205.515,4.446l3.542,2.335l0.604,2.938l0.979-0.201l-0.604-2.938
	l2.336-3.542l-0.98,0.201l-1.758,1.382l-0.201-0.979l1.558-2.362l-1.96,0.402l0.201,0.98l-0.979,0.201l-0.2-0.98l-1.96,0.403
	l2.361,1.557l0.202,0.979l-2.161-0.577L205.515,4.446z"/>
<path fill-rule="evenodd" clip-rule="evenodd" fill="#B7B7B7" d="M212.372,4.446l3.542,2.335l0.604,2.938l0.979-0.201l-0.604-2.938
	l2.335-3.542l-0.979,0.201l-1.758,1.382l-0.201-0.979l1.557-2.362l-1.959,0.402l0.201,0.98l-0.979,0.201l-0.201-0.98l-1.96,0.403
	l2.362,1.557l0.201,0.979l-2.161-0.577L212.372,4.446z"/>
<path fill-rule="evenodd" clip-rule="evenodd" fill="#B7B7B7" d="M219.229,4.446l3.542,2.335l0.604,2.938l0.98-0.201l-0.604-2.938
	l2.335-3.542l-0.979,0.201l-1.759,1.382l-0.2-0.979l1.556-2.362l-1.959,0.402l0.202,0.98l-0.98,0.201l-0.201-0.98l-1.959,0.403
	l2.361,1.557l0.202,0.979l-2.161-0.577L219.229,4.446z"/>
<path fill-rule="evenodd" clip-rule="evenodd" fill="#B7B7B7" d="M226.086,4.446l3.542,2.335l0.604,2.938l0.979-0.201l-0.604-2.938
	l2.335-3.542l-0.979,0.201l-1.758,1.382l-0.201-0.979l1.557-2.362l-1.959,0.402l0.201,0.98l-0.979,0.201l-0.201-0.98l-1.959,0.403
	l2.361,1.557l0.201,0.979l-2.161-0.577L226.086,4.446z"/>
<path fill-rule="evenodd" clip-rule="evenodd" fill="#B7B7B7" d="M232.942,4.446l3.543,2.335l0.604,2.938l0.979-0.201l-0.604-2.938
	l2.335-3.542l-0.979,0.201l-1.758,1.382l-0.201-0.979l1.557-2.362l-1.959,0.402l0.202,0.98l-0.979,0.201l-0.201-0.98l-1.96,0.403
	l2.362,1.557l0.2,0.979l-2.16-0.577L232.942,4.446z"/>
<path fill-rule="evenodd" clip-rule="evenodd" fill="#B7B7B7" d="M239.799,4.446l3.543,2.335l0.604,2.938l0.979-0.201l-0.604-2.938
	l2.335-3.542l-0.979,0.201l-1.758,1.382l-0.201-0.979l1.557-2.362l-1.959,0.402l0.201,0.98l-0.979,0.201l-0.201-0.98l-1.96,0.403
	l2.362,1.557l0.201,0.979l-2.161-0.577L239.799,4.446z"/>
<path fill-rule="evenodd" clip-rule="evenodd" fill="#B7B7B7" d="M247.718,3.772l2.001,3.741l-0.871,2.871l0.957,0.29l0.87-2.871
	l3.742-2l-0.957-0.29l-2.204,0.376l0.29-0.956l2.494-1.334l-1.914-0.58l-0.29,0.957l-0.957-0.29l0.29-0.958l-1.914-0.58l1.334,2.495
	l-0.29,0.956l-1.624-1.537L247.718,3.772z"/>
<path fill-rule="evenodd" clip-rule="evenodd" fill="#B7B7B7" d="M155.17,3.361l2.001,3.742l-0.871,2.87l0.957,0.291l0.87-2.871
	l3.742-2l-0.957-0.29l-2.204,0.376l0.29-0.957l2.495-1.334l-1.915-0.58l-0.29,0.957l-0.957-0.29l0.291-0.958l-1.915-0.58
	l1.334,2.495l-0.29,0.957l-1.624-1.538L155.17,3.361z"/>
<path fill-rule="evenodd" clip-rule="evenodd" fill="#B7B7B7" d="M148.472,2.86l2,3.741l-0.87,2.871l0.956,0.29l0.871-2.871l3.741-2
	l-0.956-0.29l-2.205,0.376l0.29-0.957l2.495-1.334l-1.914-0.58l-0.291,0.957l-0.957-0.29l0.291-0.958l-1.914-0.58l1.334,2.495
	l-0.29,0.957l-1.625-1.537L148.472,2.86z"/>
<path fill-rule="evenodd" clip-rule="evenodd" fill="#B7B7B7" d="M141.772,3.361l2.001,3.742l-0.871,2.87l0.957,0.291l0.87-2.871
	l3.742-2l-0.957-0.29l-2.204,0.376l0.29-0.957l2.494-1.334l-1.913-0.58l-0.291,0.957l-0.957-0.29l0.29-0.958l-1.914-0.58
	l1.334,2.495l-0.29,0.957l-1.624-1.538L141.772,3.361z"/>
<path fill-rule="evenodd" clip-rule="evenodd" fill="#B7B7B7" d="M135.073,2.861l2.002,3.742l-0.871,2.87l0.956,0.291l0.871-2.871
	l3.741-2l-0.957-0.29l-2.204,0.376l0.291-0.957l2.494-1.334l-1.914-0.58l-0.29,0.957l-0.957-0.29l0.29-0.958l-1.915-0.58
	l1.334,2.495l-0.289,0.957l-1.624-1.538L135.073,2.861z"/>
<path fill-rule="evenodd" clip-rule="evenodd" fill="#B7B7B7" d="M127.718,2.861l2.001,3.742l-0.871,2.87l0.957,0.291l0.87-2.871
	l3.741-2l-0.956-0.29l-2.204,0.376l0.29-0.957l2.494-1.334l-1.913-0.58l-0.291,0.957l-0.957-0.29l0.29-0.958l-1.914-0.58
	l1.334,2.495l-0.29,0.957l-1.624-1.538L127.718,2.861z"/>
<path fill-rule="evenodd" clip-rule="evenodd" fill="#B7B7B7" d="M121.019,3.361l2.001,3.742l-0.87,2.87l0.957,0.291l0.87-2.871
	l3.741-2l-0.957-0.29l-2.204,0.376l0.29-0.957l2.495-1.334l-1.914-0.58l-0.291,0.957l-0.956-0.29l0.29-0.958l-1.914-0.58
	l1.333,2.495l-0.289,0.957l-1.625-1.538L121.019,3.361z"/>
<path fill-rule="evenodd" clip-rule="evenodd" fill="#B7B7B7" d="M123.028,23.938l-3.049,2.951l-3-0.051l-0.016,1l2.999,0.05
	l2.949,3.049l0.017-0.999l-0.966-2.017l0.999,0.017l1.967,2.033l0.033-1.999l-1-0.018l0.017-1l1,0.018l0.033-2.001l-2.033,1.967
	l-1-0.017l1.034-1.983L123.028,23.938z"/>
<path fill-rule="evenodd" clip-rule="evenodd" fill="#B7B7B7" d="M255.255,20.544l-2.175,3.643l-2.909,0.733l0.244,0.97l2.909-0.733
	l3.642,2.175l-0.244-0.969l-1.458-1.694l0.969-0.245l2.43,1.45l-0.489-1.938l-0.971,0.243l-0.244-0.969l0.97-0.244l-0.489-1.94
	l-1.45,2.429l-0.97,0.245l0.48-2.185L255.255,20.544z"/>
</svg>
