<?xml version="1.0" encoding="utf-8"?>
<!-- Generator: Adobe Illustrator 16.0.0, SVG Export Plug-In . SVG Version: 6.00 Build 0)  -->
<!DOCTYPE svg PUBLIC "-//W3C//DTD SVG 1.1//EN" "http://www.w3.org/Graphics/SVG/1.1/DTD/svg11.dtd">
<svg version="1.1" id="Layer_1" xmlns="http://www.w3.org/2000/svg" xmlns:xlink="http://www.w3.org/1999/xlink" x="0px" y="0px"
	 width="640px" height="480px" viewBox="0 0 640 480" enable-background="new 0 0 640 480" xml:space="preserve">
<path fill-rule="evenodd" clip-rule="evenodd" fill="#545554" d="M321.5,237h143l7,7h8l10,31l-13,3v6l-97,8l-15,8h-33l-20-17h-63
	v-25l60-6L321.5,237z"/>
<path fill-rule="evenodd" clip-rule="evenodd" fill="#B0AFB0" stroke="#B2B3B3" stroke-miterlimit="10" d="M411.5,237l4,4v4l-4,4h-1
	l-2-2h-6v2h-4v-2h-12l-2,2h-2l-6-6v-2l4-4H411.5z"/>
<path fill-rule="evenodd" clip-rule="evenodd" fill="#BF942D" d="M322.6,292.49l-1.199-0.979l162-33l0.199,0.979L322.6,292.49z"/>
<path fill-rule="evenodd" clip-rule="evenodd" fill="#BF942D" d="M248.5,278v-1h98v1H248.5z"/>
<path fill-rule="evenodd" clip-rule="evenodd" fill="#BF942D" d="M248.5,264v-1h168v1H248.5z"/>
<path fill-rule="evenodd" clip-rule="evenodd" fill="#E5E5E5" d="M330.598,299.49l-0.195-0.98l156-31l0.195,0.98L330.598,299.49z"/>
<path fill-rule="evenodd" clip-rule="evenodd" fill="#E5E5E5" d="M313.595,284.491l-1.19-0.981l169-33l0.19,0.981L313.595,284.491z"
	/>
<path fill-rule="evenodd" clip-rule="evenodd" fill="#D8D8D8" d="M407.5,238c0.552,0,1,0.448,1,1s-0.448,1-1,1s-1-0.448-1-1
	S406.948,238,407.5,238z"/>
<path fill-rule="evenodd" clip-rule="evenodd" fill="#D3D3D3" d="M409,241c0.828,0,1.5,0.671,1.5,1.5s-0.672,1.5-1.5,1.5
	c-0.829,0-1.5-0.671-1.5-1.5S408.171,241,409,241z"/>
<path fill-rule="evenodd" clip-rule="evenodd" fill="#D6D6D6" d="M405.5,241c0.552,0,1,0.448,1,1s-0.448,1-1,1s-1-0.448-1-1
	S404.948,241,405.5,241z"/>
<path fill-rule="evenodd" clip-rule="evenodd" fill="#DCDCDA" d="M385.5,238c0.552,0,1,0.448,1,1s-0.448,1-1,1s-1-0.448-1-1
	S384.948,238,385.5,238z"/>
<path fill-rule="evenodd" clip-rule="evenodd" fill="#D8D8D8" d="M385.5,243c0.552,0,1,0.448,1,1s-0.448,1-1,1s-1-0.448-1-1
	S384.948,243,385.5,243z"/>
<path fill-rule="evenodd" clip-rule="evenodd" fill="#E0E0E0" d="M383,240c0.828,0,1.5,0.671,1.5,1.5s-0.672,1.5-1.5,1.5
	c-0.829,0-1.5-0.671-1.5-1.5S382.171,240,383,240z"/>
<path fill-rule="evenodd" clip-rule="evenodd" fill="#5B5C5C" d="M381.5,237h-1l-4,4v2l6,6h2l2-2h12v2h4v-2h6l2,2h1l4-4v-4l-4-4h-1
	v8h-29V237z"/>
<path fill-rule="evenodd" clip-rule="evenodd" fill="#D3D3D3" d="M392.5,237v1h-2v1h2v1h-3v1h3v1h-2v1h2v1h1v-1h2v-1h-2v-1h3v-1h-3
	v-1h2v-1h-2v-1H392.5z"/>
<path fill-rule="evenodd" clip-rule="evenodd" fill="#B7B7B7" d="M418.502,240.446l3.542,2.335l0.604,2.938l0.979-0.201
	l-0.604-2.938l2.335-3.542l-0.979,0.201l-1.758,1.382l-0.201-0.979l1.557-2.362l-1.959,0.402l0.201,0.98l-0.979,0.201l-0.201-0.98
	l-1.959,0.403l2.362,1.557l0.201,0.979l-2.161-0.577L418.502,240.446z"/>
<path fill-rule="evenodd" clip-rule="evenodd" fill="#B7B7B7" d="M425.359,240.446l3.542,2.335l0.604,2.938l0.979-0.201
	l-0.604-2.938l2.335-3.542l-0.979,0.201l-1.758,1.382l-0.201-0.979l1.557-2.362l-1.959,0.402l0.201,0.98l-0.979,0.201l-0.201-0.98
	l-1.959,0.403l2.362,1.557l0.201,0.979l-2.161-0.577L425.359,240.446z"/>
<path fill-rule="evenodd" clip-rule="evenodd" fill="#B7B7B7" d="M432.216,240.446l3.542,2.335l0.604,2.938l0.979-0.201
	l-0.604-2.938l2.335-3.542l-0.979,0.201l-1.758,1.382l-0.201-0.979l1.557-2.362l-1.959,0.402l0.201,0.98l-0.979,0.201l-0.201-0.98
	l-1.959,0.403l2.362,1.557l0.201,0.979l-2.161-0.577L432.216,240.446z"/>
<path fill-rule="evenodd" clip-rule="evenodd" fill="#B7B7B7" d="M439.073,240.446l3.542,2.335l0.604,2.938l0.979-0.201
	l-0.604-2.938l2.335-3.542l-0.979,0.201l-1.758,1.382l-0.201-0.979l1.557-2.362l-1.959,0.402l0.201,0.98l-0.979,0.201l-0.201-0.98
	l-1.959,0.403l2.362,1.557l0.201,0.979l-2.161-0.577L439.073,240.446z"/>
<path fill-rule="evenodd" clip-rule="evenodd" fill="#B7B7B7" d="M445.93,240.446l3.542,2.335l0.604,2.938l0.979-0.201l-0.604-2.938
	l2.335-3.542l-0.979,0.201l-1.758,1.382l-0.201-0.979l1.557-2.362l-1.959,0.402l0.201,0.98l-0.979,0.201l-0.201-0.98l-1.959,0.403
	l2.362,1.557l0.201,0.979l-2.161-0.577L445.93,240.446z"/>
<path fill-rule="evenodd" clip-rule="evenodd" fill="#B7B7B7" d="M452.787,240.446l3.542,2.335l0.604,2.938l0.979-0.201
	l-0.604-2.938l2.335-3.542l-0.979,0.201l-1.758,1.382l-0.201-0.979l1.557-2.362l-1.959,0.402l0.201,0.98l-0.979,0.201l-0.201-0.98
	l-1.959,0.403l2.362,1.557l0.201,0.979l-2.161-0.577L452.787,240.446z"/>
<path fill-rule="evenodd" clip-rule="evenodd" fill="#B7B7B7" d="M460.705,239.772l2.001,3.741l-0.871,2.871l0.957,0.291
	l0.871-2.871l3.741-2l-0.957-0.29l-2.204,0.376l0.29-0.957l2.495-1.334l-1.914-0.58l-0.291,0.957l-0.957-0.29l0.291-0.958
	l-1.915-0.58l1.334,2.495l-0.29,0.957l-1.624-1.538L460.705,239.772z"/>
<path fill-rule="evenodd" clip-rule="evenodd" fill="#B7B7B7" d="M368.157,239.361l2.001,3.741l-0.871,2.871l0.957,0.291
	l0.871-2.871l3.741-2l-0.957-0.29l-2.204,0.376l0.29-0.957l2.495-1.334l-1.914-0.58l-0.291,0.957l-0.957-0.29l0.291-0.958
	l-1.915-0.58l1.334,2.495l-0.29,0.957l-1.624-1.538L368.157,239.361z"/>
<path fill-rule="evenodd" clip-rule="evenodd" fill="#B7B7B7" d="M361.458,238.86l2.001,3.741l-0.871,2.871l0.957,0.291l0.871-2.871
	l3.741-2l-0.957-0.29l-2.204,0.376l0.29-0.957l2.495-1.334l-1.914-0.58l-0.291,0.957l-0.957-0.29l0.291-0.958l-1.915-0.58
	l1.334,2.495l-0.29,0.957l-1.624-1.538L361.458,238.86z"/>
<path fill-rule="evenodd" clip-rule="evenodd" fill="#B7B7B7" d="M354.76,239.361l2.001,3.741l-0.871,2.871l0.957,0.291l0.871-2.871
	l3.741-2l-0.957-0.29l-2.204,0.376l0.29-0.957l2.495-1.334l-1.914-0.58l-0.291,0.957l-0.957-0.29l0.291-0.958l-1.915-0.58
	l1.334,2.495l-0.29,0.957l-1.624-1.538L354.76,239.361z"/>
<path fill-rule="evenodd" clip-rule="evenodd" fill="#B7B7B7" d="M348.061,238.861l2.001,3.741l-0.871,2.871l0.957,0.291
	l0.871-2.871l3.741-2l-0.957-0.29l-2.204,0.376l0.29-0.957l2.495-1.334l-1.914-0.58l-0.291,0.957l-0.957-0.29l0.291-0.958
	l-1.915-0.58l1.334,2.495l-0.29,0.957l-1.624-1.538L348.061,238.861z"/>
<path fill-rule="evenodd" clip-rule="evenodd" fill="#B7B7B7" d="M340.705,238.861l2.001,3.741l-0.871,2.871l0.957,0.291
	l0.871-2.871l3.741-2l-0.957-0.29l-2.204,0.376l0.29-0.957l2.495-1.334l-1.914-0.58l-0.291,0.957l-0.957-0.29l0.291-0.958
	l-1.915-0.58l1.334,2.495l-0.29,0.957l-1.624-1.538L340.705,238.861z"/>
<path fill-rule="evenodd" clip-rule="evenodd" fill="#B7B7B7" d="M334.006,239.361l2.001,3.741l-0.871,2.871l0.957,0.291
	l0.871-2.871l3.741-2l-0.957-0.29l-2.204,0.376l0.29-0.957l2.495-1.334l-1.914-0.58l-0.291,0.957l-0.957-0.29l0.291-0.958
	l-1.915-0.58l1.334,2.495l-0.29,0.957l-1.624-1.538L334.006,239.361z"/>
<path fill-rule="evenodd" clip-rule="evenodd" fill="#B7B7B7" d="M336.016,259.938l-3.049,2.95l-3-0.05l-0.017,1l3,0.05l2.949,3.049
	l0.017-0.999l-0.966-2.017l0.999,0.017l1.967,2.033l0.033-2l-1-0.017l0.016-1l1,0.017l0.033-2l-2.033,1.967l-1-0.017l1.034-1.983
	L336.016,259.938z"/>
<path fill-rule="evenodd" clip-rule="evenodd" fill="#B7B7B7" d="M468.242,256.544l-2.175,3.643l-2.909,0.733l0.244,0.97
	l2.909-0.734l3.642,2.175l-0.244-0.969l-1.458-1.695l0.969-0.245l2.429,1.45l-0.489-1.939l-0.97,0.244l-0.245-0.97l0.97-0.244
	l-0.49-1.94l-1.45,2.429l-0.97,0.245l0.481-2.185L468.242,256.544z"/>
</svg>
