<?xml version="1.0" encoding="utf-8"?>
<!-- Generator: Adobe Illustrator 16.0.0, SVG Export Plug-In . SVG Version: 6.00 Build 0)  -->
<!DOCTYPE svg PUBLIC "-//W3C//DTD SVG 1.1//EN" "http://www.w3.org/Graphics/SVG/1.1/DTD/svg11.dtd">
<svg version="1.1" id="Layer_1" xmlns="http://www.w3.org/2000/svg" xmlns:xlink="http://www.w3.org/1999/xlink" x="0px" y="0px"
	 width="250px" height="65px" viewBox="37.5 0 250 65" enable-background="new 37.5 0 250 65" xml:space="preserve">
<path fill="#545554" d="M115,1h143l7,7h8l10,31l-13,3v6l-97,8l-15,8h-33l-20-17H42V22l60-6L115,1z"/>
<path fill="#B0AFB0" stroke="#B2B3B3" stroke-miterlimit="10" d="M205,1l4,4v4l-4,4h-1l-2-2h-6v2h-4v-2h-12l-2,2h-2l-6-6V5l4-4H205z
	"/>
<path fill="#BF942D" d="M116.098,56.489l-1.199-0.979l162-33l0.198,0.979L116.098,56.489z"/>
<path fill="#BF942D" d="M42,42v-1h98v1H42z"/>
<path fill="#BF942D" d="M42,28v-1h168v1H42z"/>
<path fill="#E5E5E5" d="M124.096,63.49l-0.195-0.98l156-31l0.194,0.98L124.096,63.49z"/>
<path fill="#E5E5E5" d="M107.094,48.49l-1.19-0.98l169-33l0.189,0.98L107.094,48.49z"/>
<path fill="#D8D8D8" d="M201,2c0.551,0,1,0.448,1,1s-0.449,1-1,1c-0.553,0-1-0.448-1-1S200.447,2,201,2z"/>
<path fill="#D3D3D3" d="M202.5,5c0.827,0,1.5,0.672,1.5,1.5S203.327,8,202.5,8c-0.828,0-1.5-0.672-1.5-1.5S201.672,5,202.5,5z"/>
<path fill="#D6D6D6" d="M199,5c0.551,0,1,0.448,1,1s-0.449,1-1,1c-0.553,0-1-0.448-1-1S198.447,5,199,5z"/>
<path fill="#DCDCDA" d="M179,2c0.551,0,1,0.448,1,1s-0.449,1-1,1c-0.553,0-1-0.448-1-1S178.447,2,179,2z"/>
<path fill="#D8D8D8" d="M179,7c0.551,0,1,0.448,1,1s-0.449,1-1,1c-0.553,0-1-0.448-1-1S178.447,7,179,7z"/>
<path fill="#E0E0E0" d="M176.5,4c0.827,0,1.5,0.672,1.5,1.5S177.327,7,176.5,7c-0.828,0-1.5-0.672-1.5-1.5S175.672,4,176.5,4z"/>
<path fill="#5B5C5C" d="M175,1h-1l-4,4v2l6,6h2l2-2h12v2h4v-2h6l2,2h1l4-4V5l-4-4h-1v8h-29V1z"/>
<path fill="#D3D3D3" d="M186,1v1h-2v1h2v1h-3v1h3v1h-2v1h2v1h1V7h2V6h-2V5h3V4h-3V3h2V2h-2V1H186z"/>
<path fill="#B7B7B7" d="M212.002,4.446l3.541,2.335l0.604,2.938l0.979-0.201l-0.604-2.938l2.336-3.542l-0.979,0.201l-1.759,1.382
	l-0.2-0.979l1.558-2.362l-1.96,0.402l0.201,0.98l-0.979,0.201l-0.2-0.98l-1.96,0.403l2.361,1.557l0.202,0.979l-2.161-0.577
	L212.002,4.446z"/>
<path fill="#B7B7B7" d="M218.858,4.446l3.542,2.335l0.604,2.938l0.979-0.201l-0.604-2.938l2.336-3.542l-0.979,0.201l-1.758,1.382
	l-0.201-0.979l1.558-2.362l-1.959,0.402l0.2,0.98l-0.979,0.201l-0.2-0.98l-1.96,0.403l2.361,1.557l0.201,0.979l-2.16-0.577
	L218.858,4.446z"/>
<path fill="#B7B7B7" d="M225.715,4.446l3.543,2.335l0.604,2.938l0.98-0.201l-0.604-2.938l2.335-3.542l-0.979,0.201l-1.76,1.382
	l-0.199-0.979l1.556-2.362l-1.959,0.402l0.202,0.98l-0.98,0.201l-0.201-0.98l-1.959,0.403l2.361,1.557l0.202,0.979l-2.161-0.577
	L225.715,4.446z"/>
<path fill="#B7B7B7" d="M232.572,4.446l3.542,2.335l0.604,2.938l0.979-0.201l-0.604-2.938l2.334-3.542l-0.979,0.201l-1.758,1.382
	l-0.201-0.979l1.557-2.362l-1.959,0.402l0.201,0.98l-0.979,0.201l-0.201-0.98l-1.959,0.403l2.361,1.557l0.201,0.979l-2.162-0.577
	L232.572,4.446z"/>
<path fill="#B7B7B7" d="M239.428,4.446l3.543,2.335l0.604,2.938l0.979-0.201L243.95,6.58l2.335-3.542l-0.979,0.201l-1.758,1.382
	l-0.201-0.979l1.557-2.362l-1.959,0.402l0.202,0.98l-0.979,0.201l-0.201-0.98l-1.959,0.403l2.361,1.557l0.2,0.979l-2.16-0.577
	L239.428,4.446z"/>
<path fill="#B7B7B7" d="M246.285,4.446l3.543,2.335l0.604,2.938l0.979-0.201l-0.604-2.938l2.336-3.542l-0.979,0.201l-1.758,1.382
	l-0.201-0.979l1.558-2.362l-1.959,0.402l0.201,0.98l-0.979,0.201l-0.201-0.98l-1.96,0.403l2.361,1.557l0.201,0.979l-2.16-0.577
	L246.285,4.446z"/>
<path fill="#B7B7B7" d="M254.204,3.772l2.001,3.741l-0.871,2.871l0.957,0.29l0.87-2.871l3.742-2l-0.957-0.29l-2.204,0.376
	l0.29-0.956l2.494-1.334l-1.914-0.58l-0.29,0.957l-0.957-0.29l0.29-0.958l-1.914-0.58l1.334,2.495l-0.29,0.956l-1.624-1.537
	L254.204,3.772z"/>
<path fill="#B7B7B7" d="M161.656,3.361l2.001,3.742l-0.871,2.87l0.957,0.291l0.87-2.871l3.742-2l-0.957-0.29l-2.204,0.376
	l0.29-0.957l2.495-1.334l-1.915-0.58l-0.29,0.957l-0.957-0.29l0.291-0.958l-1.915-0.58l1.334,2.495l-0.29,0.957l-1.624-1.538
	L161.656,3.361z"/>
<path fill="#B7B7B7" d="M154.958,2.86l2,3.741l-0.87,2.871l0.956,0.29l0.871-2.871l3.741-2l-0.956-0.29l-2.205,0.376l0.29-0.957
	l2.495-1.334l-1.914-0.58l-0.291,0.957l-0.957-0.29l0.291-0.958l-1.914-0.58l1.334,2.495l-0.29,0.957l-1.625-1.537L154.958,2.86z"/>
<path fill="#B7B7B7" d="M148.258,3.361l2.001,3.742l-0.871,2.87l0.957,0.291l0.87-2.871l3.742-2L154,5.103l-2.204,0.376l0.29-0.957
	l2.494-1.334l-1.913-0.58l-0.291,0.957l-0.957-0.29l0.29-0.958l-1.914-0.58l1.334,2.495l-0.29,0.957l-1.624-1.538L148.258,3.361z"/>
<path fill="#B7B7B7" d="M141.56,2.861l2.002,3.742l-0.871,2.87l0.956,0.291l0.871-2.871l3.741-2l-0.957-0.29l-2.204,0.376
	l0.291-0.957l2.494-1.334l-1.914-0.58l-0.29,0.957l-0.957-0.29l0.29-0.958l-1.915-0.58l1.334,2.495l-0.289,0.957l-1.624-1.538
	L141.56,2.861z"/>
<path fill="#B7B7B7" d="M134.204,2.861l2.001,3.742l-0.871,2.87l0.957,0.291l0.87-2.871l3.741-2l-0.956-0.29l-2.204,0.376
	l0.29-0.957l2.494-1.334l-1.913-0.58l-0.291,0.957l-0.957-0.29l0.29-0.958l-1.914-0.58l1.334,2.495l-0.29,0.957l-1.624-1.538
	L134.204,2.861z"/>
<path fill="#B7B7B7" d="M127.505,3.361l2.001,3.742l-0.87,2.87l0.957,0.291l0.87-2.871l3.741-2l-0.957-0.29l-2.204,0.376l0.29-0.957
	l2.495-1.334l-1.914-0.58l-0.291,0.957l-0.956-0.29l0.29-0.958l-1.914-0.58l1.333,2.495l-0.289,0.957l-1.625-1.538L127.505,3.361z"
	/>
<path fill="#B7B7B7" d="M129.514,23.938l-3.049,2.951l-3-0.051l-0.016,1l2.999,0.051l2.949,3.049l0.017-1l-0.966-2.017l0.999,0.017
	l1.967,2.033l0.033-1.998l-1-0.019l0.017-1l1,0.019l0.033-2.002l-2.033,1.967l-1-0.017l1.034-1.983L129.514,23.938z"/>
<path fill="#B7B7B7" d="M261.741,20.544l-2.175,3.644l-2.909,0.732l0.244,0.971l2.909-0.733l3.642,2.175l-0.243-0.969l-1.459-1.694
	l0.969-0.245l2.431,1.45l-0.489-1.938l-0.971,0.244l-0.244-0.97l0.971-0.244l-0.49-1.94l-1.449,2.43l-0.971,0.245l0.48-2.185
	L261.741,20.544z"/>
</svg>
